STARTFONT 2.1
FONT -Adobe-Utopia-Bold-I-Normal--33-240-100-100-P-186-ISO8859-2
SIZE 24 100 100
FONTBOUNDINGBOX 48 39 -5 -8
STARTPROPERTIES 29
FOUNDRY "Adobe"
FAMILY_NAME "Utopia"
WEIGHT_NAME "Bold"
SLANT "I"
SETWIDTH_NAME "Normal"
ADD_STYLE_NAME ""
PIXEL_SIZE 33
POINT_SIZE 240
RESOLUTION_X 100
RESOLUTION_Y 100
SPACING "P"
AVERAGE_WIDTH 186
CHARSET_REGISTRY "ISO8859"
CHARSET_ENCODING "2"
CAP_HEIGHT 23
X_HEIGHT 16
RELATIVE_SETWIDTH 50
RELATIVE_WEIGHT 70
WEIGHT 208
FACE_NAME "Utopia Bold Italic"
COPYRIGHT "Copyright (c) 1989, 1991 Adobe Systems Incorporated.  All Rights Reserved., Copyright 1996 Cub Soft"
NOTICE "Utopia is a registered trademark of Adobe Systems Incorporated."
DESTINATION 0
FONT_ASCENT 31
FONT_DESCENT 8
DEFAULT_CHAR 32
_ADOBE_PSFONT "Utopia-BoldItalic"
_ADOBE_XFONT "-Adobe-Utopia-Bold-I-Normal--33-240-100-100-P-186-ISO8859-2"
_DEC_DEVICE_FONTNAMES "PS=Utopia-BoldItalic"
ENDPROPERTIES
CHARS 191
STARTCHAR space
ENCODING 32
SWIDTH 210 0
DWIDTH 7 0
BBX 0 0 0 0
BITMAP
ENDCHAR
STARTCHAR exclam
ENCODING 33
SWIDTH 285 0
DWIDTH 10 0
BBX 10 24 2 0
BITMAP
0380
07c0
0fc0
0f80
0f80
0f80
0f00
0f00
0f00
0e00
0e00
1e00
1c00
1c00
1800
1800
0000
0000
3000
7c00
fc00
fc00
7800
3000
ENDCHAR
STARTCHAR quotedbl
ENCODING 34
SWIDTH 455 0
DWIDTH 15 0
BBX 12 10 6 14
BITMAP
30e0
79f0
f9f0
f1e0
f1e0
f1c0
e1c0
e180
c180
c180
ENDCHAR
STARTCHAR numbersign
ENCODING 35
SWIDTH 560 0
DWIDTH 19 0
BBX 19 21 2 1
BITMAP
0061c0
00e180
00e380
00c380
01c300
01c700
018700
1fffe0
3fffc0
070c00
071c00
061800
7fff80
ffff00
1c3000
1c7000
187000
386000
38e000
30c000
71c000
ENDCHAR
STARTCHAR dollar
ENCODING 36
SWIDTH 560 0
DWIDTH 19 0
BBX 19 30 2 -4
BITMAP
000c00
000c00
001800
007c00
03ff80
079bc0
0f13e0
0e31e0
1e30c0
1e3000
1f3000
0ff000
0ff000
07fc00
03fe00
01ff00
00ff00
00df80
00cf80
21c780
718780
f18700
f98f00
7d9e00
3ffc00
07e000
030000
030000
030000
040000
ENDCHAR
STARTCHAR percent
ENCODING 37
SWIDTH 896 0
DWIDTH 30 0
BBX 25 24 5 -1
BITMAP
0f800400
1cc01e00
38fff800
38fff800
78f03000
70f06000
f0f0c000
f0f18000
f0e38000
f1e70000
71c60000
738c7e00
1e18e700
0031c780
0073c780
00e38780
00c38780
01878780
03078700
07078f00
0e078e00
0c039c00
1801f000
30000000
ENDCHAR
STARTCHAR ampersand
ENCODING 38
SWIDTH 752 0
DWIDTH 25 0
BBX 23 23 3 0
BITMAP
003800
00fe00
01c700
03c780
078780
078780
078f00
07ce00
07dc1c
03f03e
03e03c
0ff03c
1df838
3cf878
78fc70
787ee0
f83fc0
f83f80
f81fc0
7c0fe0
7e1ff0
3ff9f8
0fe03c
ENDCHAR
STARTCHAR apostrophe
ENCODING 39
SWIDTH 246 0
DWIDTH 8 0
BBX 7 11 4 13
BITMAP
18
3c
3e
3e
3c
1c
38
38
70
40
80
ENDCHAR
STARTCHAR parenleft
ENCODING 40
SWIDTH 350 0
DWIDTH 12 0
BBX 11 28 4 -4
BITMAP
00e0
03c0
0780
0f00
0e00
1e00
1c00
3c00
3800
3800
7800
7000
7000
7000
7000
f000
e000
e000
e000
e000
e000
e000
e000
6000
7000
3000
3800
0800
ENDCHAR
STARTCHAR parenright
ENCODING 41
SWIDTH 350 0
DWIDTH 12 0
BBX 11 28 1 -4
BITMAP
0200
0380
0180
01c0
00c0
00e0
00e0
00e0
00e0
00e0
00e0
00e0
01e0
01c0
01c0
01c0
01c0
03c0
0380
0380
0780
0700
0f00
0e00
1e00
3c00
7800
e000
ENDCHAR
STARTCHAR asterisk
ENCODING 42
SWIDTH 500 0
DWIDTH 17 0
BBX 14 13 5 11
BITMAP
01c0
03c0
1188
39bc
7d7c
0ff0
0780
3fe0
fa78
f670
4620
0f00
0600
ENDCHAR
STARTCHAR plus
ENCODING 43
SWIDTH 600 0
DWIDTH 20 0
BBX 15 17 5 0
BITMAP
0380
0380
0380
0380
0380
0380
0380
fffe
fffe
fffe
0380
0380
0380
0380
0380
0380
0380
ENDCHAR
STARTCHAR comma
ENCODING 44
SWIDTH 280 0
DWIDTH 9 0
BBX 7 12 1 -6
BITMAP
08
1c
3e
3e
3e
1c
1c
38
38
70
e0
40
ENDCHAR
STARTCHAR minus
ENCODING 45
SWIDTH 600 0
DWIDTH 20 0
BBX 16 3 4 7
BITMAP
ffff
ffff
ffff
ENDCHAR
STARTCHAR period
ENCODING 46
SWIDTH 280 0
DWIDTH 9 0
BBX 6 6 2 0
BITMAP
30
7c
fc
fc
f8
30
ENDCHAR
STARTCHAR slash
ENCODING 47
SWIDTH 260 0
DWIDTH 9 0
BBX 13 24 1 0
BITMAP
0078
0070
0070
00f0
00e0
01e0
01c0
01c0
03c0
0380
0780
0700
0700
0f00
0e00
1e00
1c00
1c00
3c00
3800
7800
7000
7000
f000
ENDCHAR
STARTCHAR zero
ENCODING 48
SWIDTH 560 0
DWIDTH 19 0
BBX 18 23 3 0
BITMAP
007000
03fe00
07cf00
0f8780
1f0780
1f07c0
3e07c0
3e07c0
7e07c0
7c0fc0
7c0fc0
7c0f80
f80f80
f80f80
f81f80
f81f00
f81f00
f83e00
783e00
787c00
3c7800
1ff000
038000
ENDCHAR
STARTCHAR one
ENCODING 49
SWIDTH 560 0
DWIDTH 19 0
BBX 13 23 4 0
BITMAP
0038
07f8
0ff0
01f0
01f0
01f0
01f0
01e0
01e0
03e0
03e0
03e0
03c0
07c0
07c0
07c0
07c0
0780
0f80
0f80
0f80
0f80
fff0
ENDCHAR
STARTCHAR two
ENCODING 50
SWIDTH 560 0
DWIDTH 19 0
BBX 19 23 1 0
BITMAP
007c00
01ff80
07e7c0
07c3c0
0f83e0
0f83e0
0703e0
0207e0
0007e0
000fc0
001f80
003f00
007e00
00f800
01e000
038000
0f0000
1e0080
3c0180
7fff80
7fff00
ffff00
ffff00
ENDCHAR
STARTCHAR three
ENCODING 51
SWIDTH 560 0
DWIDTH 19 0
BBX 17 23 3 0
BITMAP
01f000
07fe00
0f9f00
1f0f00
3e0f80
1c0f80
081f80
001f80
001f00
003e00
0ff800
0ff800
003c00
001e00
001e00
001f00
601f00
f01f00
f03e00
f83e00
787c00
3ff000
0fc000
ENDCHAR
STARTCHAR four
ENCODING 52
SWIDTH 560 0
DWIDTH 19 0
BBX 18 23 2 0
BITMAP
0003c0
0007c0
000f80
001f80
003f80
006f80
00ef00
01cf00
039f00
071f00
071f00
0e1e00
1c3e00
383e00
703e00
7fffc0
ffff80
007c00
007c00
007c00
007800
00f800
07ff00
ENDCHAR
STARTCHAR five
ENCODING 53
SWIDTH 560 0
DWIDTH 19 0
BBX 19 23 2 0
BITMAP
03ffe0
07ffe0
07ffc0
07ff80
060000
060000
0e0000
0c0000
0c0000
0cf800
0ffe00
1c3f00
081f80
000f80
000f80
000f80
300f80
780f00
f81f00
7c1e00
7c3e00
3ff800
07c000
ENDCHAR
STARTCHAR six
ENCODING 54
SWIDTH 560 0
DWIDTH 19 0
BBX 18 23 3 0
BITMAP
003c00
01ff00
07c780
0f87c0
1f03c0
1f0380
3f0100
3e0000
7e3800
7efe00
7fff00
7e1f00
7c1f80
fc0f80
f80f80
f80f80
f80f80
f81f00
781f00
7c1e00
3c3c00
1ff800
03c000
ENDCHAR
STARTCHAR seven
ENCODING 55
SWIDTH 560 0
DWIDTH 19 0
BBX 17 23 5 0
BITMAP
3fff80
7fff80
7fff00
7fff00
c00e00
c00e00
001c00
003800
003000
006000
00e000
01c000
038000
078000
0f0000
1e0000
1e0000
3e0000
3e0000
7c0000
7c0000
7c0000
380000
ENDCHAR
STARTCHAR eight
ENCODING 56
SWIDTH 560 0
DWIDTH 19 0
BBX 19 23 2 0
BITMAP
007c00
03ff80
07c7c0
0f83e0
1f83e0
1f03e0
1f07e0
1f07e0
0f07c0
078f80
03fc00
1ffc00
3e1f00
7c0f00
7c0f80
f80f80
f80f80
f81f80
f81f00
781f00
7c3e00
1ff800
07c000
ENDCHAR
STARTCHAR nine
ENCODING 57
SWIDTH 560 0
DWIDTH 19 0
BBX 18 23 2 0
BITMAP
01f800
078e00
0f0700
1f0780
1f0780
1e07c0
3e07c0
3e07c0
3e07c0
3e0fc0
3f0fc0
1f1f80
0fff80
03cf80
000f80
000f00
101f00
701f00
f83e00
783c00
7cf800
3ff000
07c000
ENDCHAR
STARTCHAR colon
ENCODING 58
SWIDTH 280 0
DWIDTH 9 0
BBX 8 17 2 0
BITMAP
0c
1e
1f
3f
1e
1c
00
00
00
00
00
38
78
fc
f8
78
30
ENDCHAR
STARTCHAR semicolon
ENCODING 59
SWIDTH 280 0
DWIDTH 9 0
BBX 10 22 1 -5
BITMAP
0300
0780
0fc0
0fc0
0f80
0700
0000
0000
0000
0000
0800
1c00
3e00
3e00
3e00
1c00
1c00
3800
3800
7000
e000
4000
ENDCHAR
STARTCHAR less
ENCODING 60
SWIDTH 600 0
DWIDTH 20 0
BBX 16 17 3 0
BITMAP
0001
0007
003f
00fe
03f8
0fe0
7f00
fc00
e000
fc00
3f00
0fe0
03f8
007f
001f
0007
0001
ENDCHAR
STARTCHAR equal
ENCODING 61
SWIDTH 600 0
DWIDTH 20 0
BBX 16 10 4 3
BITMAP
ffff
ffff
ffff
0000
0000
0000
0000
ffff
ffff
ffff
ENDCHAR
STARTCHAR greater
ENCODING 62
SWIDTH 600 0
DWIDTH 20 0
BBX 16 17 4 0
BITMAP
8000
e000
fc00
7f00
1fc0
07f0
00fe
003f
0007
003f
00fc
07f0
1fc0
fe00
f800
e000
8000
ENDCHAR
STARTCHAR question
ENCODING 63
SWIDTH 454 0
DWIDTH 15 0
BBX 13 24 5 0
BITMAP
0f80
3fe0
7cf0
f8f8
f8f8
f1f8
21f8
03f0
07e0
0f80
1f00
7c00
7800
f800
f800
7f00
3c00
0000
3000
7800
fc00
fc00
f800
3000
ENDCHAR
STARTCHAR at
ENCODING 64
SWIDTH 828 0
DWIDTH 28 0
BBX 25 24 4 0
BITMAP
000f8000
00fff000
01f07800
07801c00
0f000e00
1e000700
3c03f700
3c1ef300
7838f380
78f0e380
70f0e380
71e1e380
f1e1e300
f3e3c300
f3c3c700
73c5c600
73c9cc00
79f1f800
78e0e000
3c000000
1e000000
0fc06000
03ffc000
007f0000
ENDCHAR
STARTCHAR A
ENCODING 65
SWIDTH 634 0
DWIDTH 21 0
BBX 23 24 -1 0
BITMAP
0003e0
0003e0
0007e0
0007e0
000fe0
000fe0
001be0
001be0
0033e0
0031e0
0061f0
0061f0
00c1f0
00c1f0
01fff0
03fff0
0301f0
0701f0
0601f0
0e01f0
0c01f0
1c00f8
3c01f8
ff07fe
ENDCHAR
STARTCHAR B
ENCODING 66
SWIDTH 680 0
DWIDTH 23 0
BBX 23 24 1 0
BITMAP
07ffc0
01fff8
01f8fc
01f03e
01f03e
01f03e
03f03e
03e03e
03e07c
03e078
03e1f0
07ff80
07ffe0
07c3f0
07c1f8
07c0f8
0fc0fc
0f80fc
0f80f8
0f81f8
0f81f8
1f87f0
1fffc0
fffe00
ENDCHAR
STARTCHAR C
ENCODING 67
SWIDTH 672 0
DWIDTH 22 0
BBX 21 24 4 0
BITMAP
001fc0
00fff0
03f078
07c038
0f8038
1f8010
3f0010
3e0010
7e0000
7e0000
7c0000
7c0000
fc0000
fc0000
fc0000
fc0000
fc0020
7c0060
7c00c0
3e00c0
3e01c0
1f07c0
07ff80
007c00
ENDCHAR
STARTCHAR D
ENCODING 68
SWIDTH 774 0
DWIDTH 26 0
BBX 26 24 1 0
BITMAP
07ff8000
01fff800
01f03e00
01f00f00
01f00f80
03e00780
03e00780
03e007c0
03e007c0
03e007c0
07c007c0
07c007c0
07c00fc0
07c00f80
07c00f80
0f801f80
0f801f00
0f803f00
0f803e00
1f007e00
1f00fc00
1f83f000
1fffc000
fffc0000
ENDCHAR
STARTCHAR E
ENCODING 69
SWIDTH 622 0
DWIDTH 21 0
BBX 23 24 1 0
BITMAP
07fffe
01fffe
01f81e
01f00c
01f00c
01f00c
01f00c
03f000
03e060
03e060
03e0c0
03ffc0
07ffc0
07c0c0
07c0c0
07c080
07c000
0f8018
0f8030
0f8030
0f8070
1f80e0
1fffe0
ffffe0
ENDCHAR
STARTCHAR F
ENCODING 70
SWIDTH 585 0
DWIDTH 20 0
BBX 22 24 2 0
BITMAP
0ffffc
01fffc
01f03c
01f01c
01f018
03e008
03e000
03e000
03e000
03e060
07e040
07c0c0
07ffc0
07ffc0
07c1c0
0f8080
0f8080
0f8000
0f8000
0f8000
1f0000
1f0000
1f0000
ffe000
ENDCHAR
STARTCHAR G
ENCODING 71
SWIDTH 726 0
DWIDTH 24 0
BBX 23 24 4 0
BITMAP
000fc0
00fff8
01f07c
07c03c
0fc01c
1f801c
1f001c
3f0008
3e0000
7e0000
7e0000
7c0000
7c0000
fc0000
fc0ffe
fc01f0
fc01f0
7c01f0
7c03f0
7e03e0
3e03e0
1f07e0
07ff80
00fc00
ENDCHAR
STARTCHAR H
ENCODING 72
SWIDTH 800 0
DWIDTH 27 0
BBX 29 24 1 0
BITMAP
07fe3ff8
01f807c0
01f007c0
01f007c0
01f00f80
03f00f80
03e00f80
03e00f80
03e00f80
03e01f00
07e01f00
07ffff00
07ffff00
07c01f00
07c03e00
0fc03e00
0f803e00
0f803e00
0f803e00
0f807c00
1f807c00
1f007c00
1f00fc00
ffe3ff00
ENDCHAR
STARTCHAR I
ENCODING 73
SWIDTH 386 0
DWIDTH 13 0
BBX 15 24 2 0
BITMAP
07fe
01f0
01f0
01f0
01e0
03e0
03e0
03e0
03e0
03c0
07c0
07c0
07c0
07c0
0780
0f80
0f80
0f80
0f80
0f00
1f00
1f00
1f00
ffc0
ENDCHAR
STARTCHAR J
ENCODING 74
SWIDTH 388 0
DWIDTH 13 0
BBX 18 28 -1 -4
BITMAP
01ffc0
007e00
007e00
007c00
007c00
007c00
007c00
00fc00
00f800
00f800
00f800
00f800
01f800
01f000
01f000
01f000
01f000
03e000
03e000
03e000
03e000
07e000
07c000
07c000
0f8000
1f8000
3e0000
f80000
ENDCHAR
STARTCHAR K
ENCODING 75
SWIDTH 688 0
DWIDTH 23 0
BBX 28 24 1 0
BITMAP
07ff3ff0
01f80f80
01f81e00
01f03c00
01f07800
01f0f000
01f1c000
03e38000
03e30000
03e60000
03ee0000
03fe0000
07ff0000
07df0000
07df8000
079f8000
078fc000
0f8fc000
0f87e000
0f87e000
0f07f000
1f03f800
1f01fc00
ffe01e00
ENDCHAR
STARTCHAR L
ENCODING 76
SWIDTH 586 0
DWIDTH 20 0
BBX 20 24 1 0
BITMAP
07ff00
01f800
01f800
01f000
01f000
01f000
03f000
03e000
03e000
03e000
03e000
07e000
07c000
07c000
07c000
07c000
078000
0f8030
0f8060
0f8060
0f80e0
1f83e0
1fffc0
ffffc0
ENDCHAR
STARTCHAR M
ENCODING 77
SWIDTH 921 0
DWIDTH 31 0
BBX 33 24 1 0
BITMAP
07f8007f80
01f800fe00
01f800fc00
01fc01fc00
01fc01fc00
037c037c00
037c037800
033c06f800
033e0cf800
033e0cf800
063e18f800
063e18f000
063e31f000
061e31f000
061e61f000
061f61f000
0c1fc1e000
0c1fc3e000
0c1f83e000
0c1f83e000
1c0f03e000
1c0e07c000
1c0e07e000
ff8c3ff800
ENDCHAR
STARTCHAR N
ENCODING 78
SWIDTH 741 0
DWIDTH 25 0
BBX 28 24 1 0
BITMAP
07f80ff0
01f80380
01f80380
01fc0380
01fc0300
01fe0300
033e0300
033e0300
031f0600
031f0600
031f8600
060f8600
060f8600
0607cc00
0607cc00
0607ec00
0c03ec00
0c03ec00
0c01f800
0c01f800
1c01f800
1c00f800
1c00f800
ff007000
ENDCHAR
STARTCHAR O
ENCODING 79
SWIDTH 761 0
DWIDTH 25 0
BBX 23 24 4 0
BITMAP
001e00
00ffc0
03e0f0
07c0f8
0fc078
1f807c
3f007c
3f007c
7e007e
7e007e
7e007e
fe007e
fc00fe
fc00fc
fc00fc
fc00fc
fc01f8
7c01f8
7c03f0
3c03e0
3e07c0
1f0f80
07ff00
00f800
ENDCHAR
STARTCHAR P
ENCODING 80
SWIDTH 660 0
DWIDTH 22 0
BBX 23 24 1 0
BITMAP
07ffc0
01fff0
01f8f8
01f87c
01f03c
01f03e
01f03e
03f03e
03e03e
03e07c
03e07c
03e0f8
07e1f0
07ffc0
07fe00
07c000
07c000
0fc000
0f8000
0f8000
0f8000
1f8000
1f8000
fff000
ENDCHAR
STARTCHAR Q
ENCODING 81
SWIDTH 761 0
DWIDTH 25 0
BBX 23 30 4 -6
BITMAP
001e00
00ffc0
03e0f0
07c0f8
0fc078
1f807c
3f007c
3f007c
3e007e
7e007e
7e007e
fe007e
fc007e
fc00fc
fc00fc
fc00fc
fc01f8
7c01f8
7c03f0
7c03e0
3e07e0
1e0fc0
0fbf00
03fc00
00fc00
007c00
007e00
003f00
001f80
0003e0
ENDCHAR
STARTCHAR R
ENCODING 82
SWIDTH 681 0
DWIDTH 23 0
BBX 22 24 2 0
BITMAP
07ff80
01fff0
01f0f8
01f0f8
01f07c
03e07c
03e07c
03e07c
03e07c
03e0f8
07c1f0
07c3e0
07ff80
07ff80
07c3c0
0f83e0
0f83e0
0f83e0
0f83e0
0f83e0
1f03e0
1f03e0
1f01f0
ffc0fc
ENDCHAR
STARTCHAR S
ENCODING 83
SWIDTH 551 0
DWIDTH 18 0
BBX 18 24 2 0
BITMAP
003e00
01ff80
0783c0
0f81c0
0f01c0
1f0080
1f0080
1f8000
1fc000
0ff000
0ff800
07fc00
01ff00
00ff00
007f80
401f80
401f80
600f80
e00f80
f00f00
f01f00
7c3e00
3ff800
03c000
ENDCHAR
STARTCHAR T
ENCODING 84
SWIDTH 616 0
DWIDTH 21 0
BBX 21 24 4 0
BITMAP
3ffff8
7ffff8
78fc78
70f838
60f830
40f830
c0f810
01f800
01f000
01f000
01f000
01f000
03e000
03e000
03e000
03e000
07e000
07c000
07c000
07c000
07c000
0fc000
0fc000
7ff000
ENDCHAR
STARTCHAR U
ENCODING 85
SWIDTH 776 0
DWIDTH 26 0
BBX 25 24 5 0
BITMAP
7fe3ff80
1f007c00
1f007c00
1f00fc00
1f00f800
3e00f800
3e00f800
3e00f800
3e01f000
3e01f000
7c01f000
7c01f000
7c03f000
7c03e000
f803e000
f803e000
f807c000
f807c000
f807c000
f80f8000
780f0000
7c1f0000
1ffc0000
03e00000
ENDCHAR
STARTCHAR V
ENCODING 86
SWIDTH 630 0
DWIDTH 21 0
BBX 23 24 4 0
BITMAP
ffc1fe
3e0078
3e0070
3e0060
3e00e0
1e00c0
1f01c0
1f0180
1f0300
1f0300
1f0600
1f0600
1f0c00
1f0c00
1f1800
0f1800
0fb000
0fb000
0fe000
0fe000
0fc000
0fc000
0f8000
0f8000
ENDCHAR
STARTCHAR W
ENCODING 87
SWIDTH 920 0
DWIDTH 31 0
BBX 32 24 4 0
BITMAP
ff80007f
3e01e01c
3e03e018
3e03e018
3e03e030
3e07e030
1e05e070
1e0de060
1e0de060
1e19e0c0
1e19e0c0
1e11e180
1e31f180
1e21f380
1e61f300
1e61f300
1ec1f600
1ec1f600
1e81fc00
1f81fc00
1f01f800
1f01f800
1f00f000
1e00f000
ENDCHAR
STARTCHAR X
ENCODING 88
SWIDTH 630 0
DWIDTH 21 0
BBX 27 24 -1 0
BITMAP
07ff3fe0
01f80f00
00f80e00
00fc1c00
007c3800
007c3000
007e6000
003ec000
003fc000
001f8000
001f0000
001f8000
000f8000
001f8000
003fc000
0077c000
00e7e000
00c3e000
01c3e000
0383f000
0701f000
0e01f800
3e01f800
ff8fff00
ENDCHAR
STARTCHAR Y
ENCODING 89
SWIDTH 622 0
DWIDTH 21 0
BBX 21 24 5 0
BITMAP
ffcff8
3e01e0
3e01c0
3e0380
1f0700
1f0600
1f0e00
1f0c00
0f1800
0f3800
0fb000
0fe000
07e000
07c000
07c000
078000
078000
078000
0f8000
0f8000
0f0000
0f0000
1f0000
ffe000
ENDCHAR
STARTCHAR Z
ENCODING 90
SWIDTH 618 0
DWIDTH 21 0
BBX 25 24 0 0
BITMAP
01ffff80
01ffff00
03c07f00
03007e00
0300fc00
0201f800
0203f000
0007e000
000fe000
000fc000
001f8000
003f0000
007e0000
00fc0000
01f80000
01f80000
03f00000
07e00c00
0fc01800
1f801800
3f003800
3f00f000
7ffff000
fffff000
ENDCHAR
STARTCHAR bracketleft
ENCODING 91
SWIDTH 350 0
DWIDTH 12 0
BBX 12 28 3 -4
BITMAP
03f0
0380
0700
0700
0700
0700
0700
0e00
0e00
0e00
0e00
0e00
1c00
1c00
1c00
1c00
3c00
3800
3800
3800
3800
7800
7000
7000
7000
7000
f000
fc00
ENDCHAR
STARTCHAR backslash
ENCODING 92
SWIDTH 460 0
DWIDTH 15 0
BBX 10 24 5 0
BITMAP
e000
f000
7000
7000
7000
3800
3800
3800
3c00
1c00
1c00
1c00
0e00
0e00
0e00
0f00
0700
0700
0700
0380
0380
0380
03c0
01c0
ENDCHAR
STARTCHAR bracketright
ENCODING 93
SWIDTH 350 0
DWIDTH 12 0
BBX 12 28 1 -4
BITMAP
03f0
00f0
00e0
00e0
00e0
00e0
01e0
01c0
01c0
01c0
01c0
03c0
0380
0380
0380
0380
0700
0700
0700
0700
0700
0e00
0e00
0e00
0e00
0e00
1c00
fc00
ENDCHAR
STARTCHAR asciicircum
ENCODING 94
SWIDTH 600 0
DWIDTH 20 0
BBX 16 15 4 8
BITMAP
03c0
03c0
07e0
07e0
07e0
0e70
0e70
1e78
1c38
3c3c
381c
381c
781e
700e
f00f
ENDCHAR
STARTCHAR underscore
ENCODING 95
SWIDTH 500 0
DWIDTH 17 0
BBX 17 2 0 -4
BITMAP
ffff80
ffff80
ENDCHAR
STARTCHAR grave
ENCODING 96
SWIDTH 400 0
DWIDTH 13 0
BBX 9 8 5 17
BITMAP
4000
f000
f800
7c00
3e00
0f00
0380
0080
ENDCHAR
STARTCHAR a
ENCODING 97
SWIDTH 596 0
DWIDTH 20 0
BBX 19 17 2 0
BITMAP
0073c0
03ffc0
07c7c0
0f87c0
1f0780
3e0f80
3e0f80
3c1f00
7c1f00
7c3f00
f83f00
f85e20
f89e60
f9bec0
ff3f80
7e3f00
301c00
ENDCHAR
STARTCHAR b
ENCODING 98
SWIDTH 586 0
DWIDTH 20 0
BBX 18 25 3 0
BITMAP
01c000
3fc000
0f8000
0f8000
0f8000
0f8000
0f0000
0f0000
1f0700
1f1f80
1e3f80
1e67c0
3e87c0
3d07c0
3f07c0
3e0f80
7e0f80
7c0f80
7c0f00
7c1f00
781e00
fc3c00
fc7800
dff000
878000
ENDCHAR
STARTCHAR c
ENCODING 99
SWIDTH 456 0
DWIDTH 15 0
BBX 16 17 2 0
BITMAP
0030
03fe
079f
1f0f
3e0e
3c04
7c00
7c00
7800
f800
f800
f804
f80c
f818
7c30
7fe0
1e00
ENDCHAR
STARTCHAR d
ENCODING 100
SWIDTH 609 0
DWIDTH 20 0
BBX 21 25 2 0
BITMAP
000038
0007f8
0001f0
0001f0
0001f0
0001f0
0001e0
0001e0
007be0
03ffe0
07c3c0
0f87c0
1f07c0
3e07c0
3e0f80
7c0f80
7c1f80
781f80
f83f80
f82f10
f84f30
f89f60
7f9fc0
7e1f80
380600
ENDCHAR
STARTCHAR e
ENCODING 101
SWIDTH 476 0
DWIDTH 16 0
BBX 16 17 2 0
BITMAP
0030
03fe
078f
1f0f
3e0f
3c1f
7c1e
7c7c
79f8
ffc0
fc00
f806
f80c
f808
7c38
3fe0
1f00
ENDCHAR
STARTCHAR f
ENCODING 102
SWIDTH 348 0
DWIDTH 12 0
BBX 23 33 -3 -8
BITMAP
0000e0
0003fc
0007bc
000f1e
001f0c
001f00
001e00
003e00
01ffe0
01ffe0
003e00
007c00
007c00
007c00
007c00
007800
00f800
00f800
00f800
00f000
00f000
01f000
01f000
01e000
01e000
01e000
03e000
03c000
23c000
f38000
f78000
7f0000
1c0000
ENDCHAR
STARTCHAR g
ENCODING 103
SWIDTH 522 0
DWIDTH 17 0
BBX 21 25 0 -8
BITMAP
003838
01fff0
03e3f0
07c3c0
0fc3e0
0f83e0
0f87c0
0f87c0
0f8f80
07ff00
03f800
030000
0f0000
1fe000
0ff800
07fe00
07ff00
3c3f80
780f80
f80780
f80780
780700
7e0e00
3ffc00
07f000
ENDCHAR
STARTCHAR h
ENCODING 104
SWIDTH 629 0
DWIDTH 21 0
BBX 19 25 3 0
BITMAP
01c000
3fc000
0fc000
078000
0f8000
0f8000
0f8000
0f0000
1f0380
1f1fc0
1f3fc0
1e67c0
1e47c0
3e8780
3f0f80
3f0f80
3e0f00
7e1f00
7c1f00
7c1e20
7c3e40
783ec0
f83f80
f83f00
f01c00
ENDCHAR
STARTCHAR i
ENCODING 105
SWIDTH 339 0
DWIDTH 11 0
BBX 10 24 3 0
BITMAP
0380
0780
0fc0
0780
0780
0000
0000
0780
7f00
bf00
1f00
1e00
3e00
3e00
3e00
3c00
7c00
7c00
7880
f980
fb00
fe00
fc00
7000
ENDCHAR
STARTCHAR j
ENCODING 106
SWIDTH 333 0
DWIDTH 11 0
BBX 15 32 -2 -8
BITMAP
001c
003e
007e
003e
003c
0000
0000
000e
01fc
02fc
007c
007c
007c
0078
00f8
00f8
00f8
00f0
01f0
01f0
01f0
01e0
03e0
03e0
03e0
03c0
03c0
47c0
e780
f700
ff00
3c00
ENDCHAR
STARTCHAR k
ENCODING 107
SWIDTH 570 0
DWIDTH 19 0
BBX 19 25 2 0
BITMAP
01e000
1fc000
07c000
07c000
07c000
078000
0f8000
0f8000
0f80c0
0f03e0
1f07e0
1f09e0
1f10c0
1e2000
1e7000
3ef000
3ef000
3cf000
3cf800
7c7840
7c78c0
7c7c80
783f80
f83f00
f00e00
ENDCHAR
STARTCHAR l
ENCODING 108
SWIDTH 327 0
DWIDTH 11 0
BBX 10 25 3 0
BITMAP
01c0
3fc0
0f80
0780
0f80
0f80
0f00
0f00
1f00
1f00
1f00
1e00
3e00
3e00
3e00
3c00
7c00
7c00
7c00
7880
f980
fb00
fe00
fc00
7000
ENDCHAR
STARTCHAR m
ENCODING 109
SWIDTH 914 0
DWIDTH 30 0
BBX 29 17 3 0
BITMAP
078700e0
7f0f87f0
1f3f8ff0
1f2799f0
1e47b1f0
1e8761e0
3f8f43e0
3f0f83e0
3e0f83c0
3e1f07c0
7c1f07c0
7c1e0788
7c1e0f90
783e0fb0
f83e0fe0
f83c0fc0
f0780700
ENDCHAR
STARTCHAR n
ENCODING 110
SWIDTH 635 0
DWIDTH 21 0
BBX 20 17 2 0
BITMAP
07c1c0
7f87e0
0f9fe0
0f93e0
0f23e0
1f43c0
1f87c0
1e87c0
1f0780
3f0f80
3e0f80
3e0f10
3e1f30
7c1f60
7c1fc0
7c1f80
f80e00
ENDCHAR
STARTCHAR o
ENCODING 111
SWIDTH 562 0
DWIDTH 19 0
BBX 18 17 2 0
BITMAP
00f800
07ff00
0fcf80
1f0780
3f07c0
3e07c0
7c07c0
7c0fc0
fc0fc0
f80f80
f80f80
f81f00
f83f00
783e00
787c00
3ff800
07c000
ENDCHAR
STARTCHAR p
ENCODING 112
SWIDTH 606 0
DWIDTH 20 0
BBX 20 25 2 -8
BITMAP
07c180
3fc7e0
0f8fe0
0f99f0
0fa1f0
0f61f0
0f41f0
0f83e0
1f83e0
1f03e0
1f03c0
1f07c0
3e0780
3e0f80
3e1f00
3ffc00
3cf000
7c0000
7c0000
7c0000
780000
780000
f80000
f80000
f00000
ENDCHAR
STARTCHAR q
ENCODING 113
SWIDTH 584 0
DWIDTH 19 0
BBX 19 25 2 -8
BITMAP
0078e0
03ffe0
07c3c0
0f87c0
1f07c0
3e07c0
3e0f80
7c0f80
7c1f80
781f80
f82f00
f87f00
f85f00
f89f00
7f1e00
7e3e00
183e00
003e00
003c00
003c00
007c00
007c00
007c00
007800
00e000
ENDCHAR
STARTCHAR r
ENCODING 114
SWIDTH 440 0
DWIDTH 15 0
BBX 15 17 3 0
BITMAP
0f0c
7f3e
1e7e
1efc
1f98
1f00
3f00
3e00
3e00
3e00
7c00
7c00
7c00
7c00
f800
f800
f000
ENDCHAR
STARTCHAR s
ENCODING 115
SWIDTH 417 0
DWIDTH 14 0
BBX 15 17 1 0
BITMAP
01f0
07fc
0e3c
1e1e
1e0c
1f00
0f80
0fc0
07f0
03f0
01f0
20f8
7078
f878
7c70
3fe0
0f80
ENDCHAR
STARTCHAR t
ENCODING 116
SWIDTH 359 0
DWIDTH 12 0
BBX 12 22 3 0
BITMAP
00c0
0380
0f80
0f80
0f00
7ff0
fff0
1f00
1e00
3e00
3e00
3e00
3c00
7c00
7c00
7c00
78c0
f880
f900
fe00
fc00
3800
ENDCHAR
STARTCHAR u
ENCODING 117
SWIDTH 634 0
DWIDTH 21 0
BBX 19 17 3 0
BITMAP
0703c0
ff07c0
3f07c0
1e0780
3e0f80
3e0f80
3e0f80
3c1f00
7c1f00
7c3f00
7c7f00
785e20
f89e60
f93ec0
ff3f80
fc3f00
700c00
ENDCHAR
STARTCHAR v
ENCODING 118
SWIDTH 518 0
DWIDTH 17 0
BBX 15 17 4 0
BITMAP
0f0c
fe1e
3e1e
3e1e
3e1e
3c1c
3c1c
7c1c
7c38
7c38
7830
f860
f8c0
f980
ff00
fe00
3800
ENDCHAR
STARTCHAR w
ENCODING 119
SWIDTH 795 0
DWIDTH 27 0
BBX 25 17 4 0
BITMAP
0f0f8700
ff0f8780
3e0f0780
3e1f0780
3e1f0700
3e1f0700
3c1e0700
7c3e0600
7c3e0e00
7c7e0c00
785c1800
f8bc1000
f8bc2000
f93c4000
fe3f8000
fc1f0000
700c0000
ENDCHAR
STARTCHAR x
ENCODING 120
SWIDTH 516 0
DWIDTH 17 0
BBX 19 17 0 0
BITMAP
0060e0
07e3e0
1fe7e0
01e6c0
01f800
01f800
01f000
00f000
00f800
00f800
00f840
017840
237cc0
727d80
fc3f00
7c3f00
301c00
ENDCHAR
STARTCHAR y
ENCODING 121
SWIDTH 489 0
DWIDTH 16 0
BBX 19 25 0 -8
BITMAP
00c040
0fc1e0
3fc1e0
07c1c0
07c1c0
03c1c0
03c380
03c380
03c300
03e300
03e600
03e400
03ec00
01e800
01f800
01f000
01f000
01e000
01e000
01c000
618000
f10000
fb0000
fe0000
780000
ENDCHAR
STARTCHAR z
ENCODING 122
SWIDTH 466 0
DWIDTH 16 0
BBX 17 17 1 0
BITMAP
07ff80
0fff00
0ffe00
181c00
103800
307000
00e000
01c000
038000
070100
0e0100
1c0300
3f8600
7ffe00
7ffe00
e1fc00
e03800
ENDCHAR
STARTCHAR braceleft
ENCODING 123
SWIDTH 340 0
DWIDTH 11 0
BBX 11 28 5 -4
BITMAP
01e0
0380
0700
0700
0e00
0e00
0e00
0e00
0e00
0c00
1c00
1c00
1800
3000
e000
7800
3800
3800
3800
7000
7000
7000
7000
e000
e000
e000
7000
3800
ENDCHAR
STARTCHAR bar
ENCODING 124
SWIDTH 265 0
DWIDTH 9 0
BBX 3 24 5 0
BITMAP
e0
e0
e0
e0
e0
e0
e0
e0
e0
e0
e0
e0
e0
e0
e0
e0
e0
e0
e0
e0
e0
e0
e0
e0
ENDCHAR
STARTCHAR braceright
ENCODING 125
SWIDTH 340 0
DWIDTH 11 0
BBX 11 28 0 -4
BITMAP
0380
01c0
00e0
00e0
00e0
00e0
01c0
01c0
01c0
01c0
0380
0380
0380
03c0
00e0
0380
0700
0700
0700
0e00
0e00
0e00
0e00
0e00
1c00
1c00
3800
f000
ENDCHAR
STARTCHAR asciitilde
ENCODING 126
SWIDTH 600 0
DWIDTH 20 0
BBX 17 6 3 5
BITMAP
000100
1f8380
3fff00
7ffe00
e07c00
400000
ENDCHAR
STARTCHAR nobreakspace
ENCODING 160
SWIDTH 210 0
DWIDTH 7 0
BBX 0 0 0 0
BITMAP
ENDCHAR
STARTCHAR Aogonek
ENCODING 161
SWIDTH 634 0
DWIDTH 21 0
BBX 23 33 -1 -9
BITMAP
0003e0
0003e0
0007e0
0007e0
000fe0
000fe0
001be0
001be0
0033e0
0031e0
0061f0
0061f0
00c1f0
00c1f0
01fff0
03fff0
0301f0
0701f0
0601f0
0e01f0
0c01f0
1c00f8
3c01f8
ff07fe
000400
001800
003000
007000
006000
00e000
00e000
00fe00
007800
ENDCHAR
STARTCHAR breve
ENCODING 162
SWIDTH 400 0
DWIDTH 13 0
BBX 11 5 6 18
BITMAP
c060
e0e0
ffc0
7f80
3e00
ENDCHAR
STARTCHAR Lstroke
ENCODING 163
SWIDTH 592 0
DWIDTH 20 0
BBX 20 24 1 0
BITMAP
07ff00
01f800
01f800
01f000
01f000
01f000
03f100
03e700
03ee00
03fc00
03f000
07e000
07e000
0fe000
1fc000
77c000
6fc000
8fc030
0f8030
0f8060
0f80e0
0f81e0
1fffe0
7fffc0
ENDCHAR
STARTCHAR currency
ENCODING 164
SWIDTH 560 0
DWIDTH 19 0
BBX 17 18 3 2
BITMAP
400100
e3e380
7fff00
7fff00
3c1e00
380e00
780f00
700700
700700
700700
700700
780f00
380e00
3c1e00
7fff00
7fff00
e3e380
400100
ENDCHAR
STARTCHAR Lcaron
ENCODING 165
SWIDTH 720 0
DWIDTH 24 0
BBX 24 27 1 0
BITMAP
00000c
00001e
00001f
07ff1f
01f81e
01f80e
01f01c
01f01c
01f038
03f020
03e040
03e000
03e000
03e000
07e000
07c000
07c000
07c000
07c000
078000
0f8030
0f8060
0f8060
0f80e0
1f83e0
1fffc0
ffffc0
ENDCHAR
STARTCHAR Sacute
ENCODING 166
SWIDTH 551 0
DWIDTH 18 0
BBX 21 33 2 0
BITMAP
000010
000078
0000f8
0001f0
0003e0
000780
000e00
000800
000000
003e00
01ff80
0783c0
0f81c0
0f01c0
1f0080
1f0080
1f8000
1fc000
0ff000
0ff800
07fc00
01ff00
00ff00
007f80
401f80
401f80
600f80
e00f80
f00f00
f01f00
7c3e00
3ff800
03c000
ENDCHAR
STARTCHAR section
ENCODING 167
SWIDTH 568 0
DWIDTH 19 0
BBX 17 28 3 -4
BITMAP
003800
00ff00
018f80
038780
038300
038000
07c000
1be000
31f000
31fc00
70fe00
703f00
781f00
7c0f00
3e0780
3f0380
1f8380
0fc300
07e700
03e600
01fc00
00f800
607000
f07000
f06000
f8e000
7fc000
1f0000
ENDCHAR
STARTCHAR diaeresis
ENCODING 168
SWIDTH 400 0
DWIDTH 13 0
BBX 13 5 5 19
BITMAP
3060
f8f8
f8f8
f8f8
3060
ENDCHAR
STARTCHAR Scaron
ENCODING 169
SWIDTH 551 0
DWIDTH 18 0
BBX 20 33 2 0
BITMAP
008020
01c070
00e0c0
007380
007f00
003e00
001c00
000800
000000
003e00
01ff80
0783c0
0f81c0
0f01c0
1f0080
1f0080
1f8000
1fc000
0ff000
0ff800
07fc00
01ff00
00ff00
007f80
401f80
401f80
600f80
e00f80
f00f00
f01f00
7c3e00
3ff800
03c000
ENDCHAR
STARTCHAR Scedilla
ENCODING 170
SWIDTH 551 0
DWIDTH 18 0
BBX 18 32 2 -8
BITMAP
003e00
01ff80
0783c0
0f81c0
0f01c0
1f0080
1f0080
1f8000
1fc000
0ff000
0ff800
07fc00
01ff00
00ff00
007f80
401f80
401f80
600f80
e00f80
f00f00
f01f00
7c3e00
3ff800
03c000
006000
00c000
01e000
01f000
007000
007000
00e000
03c000
ENDCHAR
STARTCHAR Tcaron
ENCODING 171
SWIDTH 616 0
DWIDTH 21 0
BBX 21 33 4 0
BITMAP
010040
0380e0
01c180
00e700
00fe00
007c00
003800
001000
000000
3ffff8
7ffff8
78fc78
70f838
60f830
40f830
c0f810
01f800
01f000
01f000
01f000
01f000
03e000
03e000
03e000
03e000
07e000
07c000
07c000
07c000
07c000
0fc000
0fc000
7ff000
ENDCHAR
STARTCHAR Zacute
ENCODING 172
SWIDTH 618 0
DWIDTH 21 0
BBX 25 33 0 0
BITMAP
00000100
00000780
00000f80
00001f00
00003e00
00007800
0000e000
00008000
00000000
01ffff80
01ffff00
03c07f00
03007e00
0300fc00
0201f800
0203f000
0007e000
000fe000
000fc000
001f8000
003f0000
007e0000
00fc0000
01f80000
01f80000
03f00000
07e00c00
0fc01800
1f801800
3f003800
3f00f000
7ffff000
fffff000
ENDCHAR
STARTCHAR hyphen
ENCODING 173
SWIDTH 392 0
DWIDTH 13 0
BBX 9 3 4 7
BITMAP
7f80
ff80
ff00
ENDCHAR
STARTCHAR Zcaron
ENCODING 174
SWIDTH 618 0
DWIDTH 21 0
BBX 25 33 0 0
BITMAP
00080200
001c0700
000e0c00
00073800
0007f000
0003e000
0001c000
00008000
00000000
01ffff80
01ffff00
03c07f00
03007e00
0300fc00
0201f800
0203f000
0007e000
000fe000
000fc000
001f8000
003f0000
007e0000
00fc0000
01f80000
01f80000
03f00000
07e00c00
0fc01800
1f801800
3f003800
3f00f000
7ffff000
fffff000
ENDCHAR
STARTCHAR Zabovedot
ENCODING 175
SWIDTH 618 0
DWIDTH 21 0
BBX 25 30 0 0
BITMAP
0001c000
0003e000
0003e000
0003e000
0001c000
00000000
01ffff80
01ffff00
03c07f00
03007e00
0300fc00
0201f800
0203f000
0007e000
000fe000
000fc000
001f8000
003f0000
007e0000
00fc0000
01f80000
01f80000
03f00000
07e00c00
0fc01800
1f801800
3f003800
3f00f000
7ffff000
fffff000
ENDCHAR
STARTCHAR degree
ENCODING 176
SWIDTH 375 0
DWIDTH 13 0
BBX 12 11 4 12
BITMAP
0f00
3fc0
79e0
70e0
e070
e070
e070
70e0
79e0
3fc0
0f00
ENDCHAR
STARTCHAR aogonek
ENCODING 177
SWIDTH 596 0
DWIDTH 20 0
BBX 19 26 2 -9
BITMAP
0073c0
03ffc0
07c7c0
0f87c0
1f0780
3e0f80
3e0f80
3c1f00
7c1f00
7c3f00
f83f00
f85e20
f89e60
f9bec0
ff3f80
7e3f00
301c00
001000
006000
00c000
01c000
018000
038000
038000
03f800
01e000
ENDCHAR
STARTCHAR ogonek
ENCODING 178
SWIDTH 350 0
DWIDTH 12 0
BBX 7 9 3 -8
BITMAP
04
18
30
70
60
e0
e0
fe
78
ENDCHAR
STARTCHAR lstroke
ENCODING 179
SWIDTH 339 0
DWIDTH 11 0
BBX 14 25 1 0
BITMAP
0070
0ff0
03e0
01e0
03e0
03e0
03e0
03c0
07c4
07d8
07f0
07e0
0f80
0f80
3f80
7f00
5f00
9f00
1f00
1e20
3e60
3ec0
3f80
3f00
1c00
ENDCHAR
STARTCHAR acute
ENCODING 180
SWIDTH 400 0
DWIDTH 13 0
BBX 9 8 7 17
BITMAP
0100
0780
0f80
1f00
3e00
7800
e000
8000
ENDCHAR
STARTCHAR lcaron
ENCODING 181
SWIDTH 570 0
DWIDTH 19 0
BBX 18 28 3 0
BITMAP
000300
000780
0007c0
01c7c0
3fc780
0f8380
078700
0f8700
0f8e00
0f0800
0f1000
1f0000
1f0000
1f0000
1e0000
3e0000
3e0000
3e0000
3c0000
7c0000
7c0000
7c0000
788000
f98000
fb0000
fe0000
fc0000
700000
ENDCHAR
STARTCHAR sacute
ENCODING 182
SWIDTH 417 0
DWIDTH 14 0
BBX 18 26 1 0
BITMAP
000080
0003c0
0007c0
000f80
001f00
003c00
007000
004000
000000
01f000
07fc00
0e3c00
1e1e00
1e0c00
1f0000
0f8000
0fc000
07f000
03f000
01f000
20f800
707800
f87800
7c7000
3fe000
0f8000
ENDCHAR
STARTCHAR caron
ENCODING 183
SWIDTH 400 0
DWIDTH 13 0
BBX 13 8 5 17
BITMAP
4010
e038
7060
39c0
3f80
1f00
0e00
0400
ENDCHAR
STARTCHAR cedilla
ENCODING 184
SWIDTH 400 0
DWIDTH 13 0
BBX 6 8 5 -8
BITMAP
18
30
78
7c
1c
1c
38
f0
ENDCHAR
STARTCHAR scaron
ENCODING 185
SWIDTH 417 0
DWIDTH 14 0
BBX 17 26 1 0
BITMAP
040100
0e0380
070600
039c00
03f800
01f000
00e000
004000
000000
01f000
07fc00
0e3c00
1e1e00
1e0c00
1f0000
0f8000
0fc000
07f000
03f000
01f000
20f800
707800
f87800
7c7000
3fe000
0f8000
ENDCHAR
STARTCHAR scedilla
ENCODING 186
SWIDTH 417 0
DWIDTH 14 0
BBX 15 25 1 -8
BITMAP
01f0
07fc
0e3c
1e1e
1e0c
1f00
0f80
0fc0
07f0
03f0
01f0
20f8
7078
f878
7c70
3fe0
0f80
00c0
0180
03c0
03e0
00e0
00e0
01c0
0780
ENDCHAR
STARTCHAR tcaron
ENCODING 187
SWIDTH 540 0
DWIDTH 18 0
BBX 18 32 3 0
BITMAP
000300
000780
0007c0
0007c0
000780
000380
000700
000700
000e00
000800
00d000
038000
0f8000
0f8000
0f0000
7ff000
fff000
1f0000
1e0000
3e0000
3e0000
3e0000
3c0000
7c0000
7c0000
7c0000
78c000
f88000
f90000
fe0000
fc0000
380000
ENDCHAR
STARTCHAR zacute
ENCODING 188
SWIDTH 466 0
DWIDTH 16 0
BBX 19 26 1 0
BITMAP
000040
0001e0
0003e0
0007c0
000f80
001e00
003800
002000
000000
07ff80
0fff00
0ffe00
181c00
103800
307000
00e000
01c000
038000
070100
0e0100
1c0300
3f8600
7ffe00
7ffe00
e1fc00
e03800
ENDCHAR
STARTCHAR doubleacute
ENCODING 189
SWIDTH 400 0
DWIDTH 13 0
BBX 11 7 6 18
BITMAP
18c0
38e0
39c0
71c0
6380
c300
8200
ENDCHAR
STARTCHAR zcaron
ENCODING 190
SWIDTH 466 0
DWIDTH 16 0
BBX 18 26 1 0
BITMAP
020080
0701c0
038300
01ce00
01fc00
00f800
007000
002000
000000
07ff80
0fff00
0ffe00
181c00
103800
307000
00e000
01c000
038000
070100
0e0100
1c0300
3f8600
7ffe00
7ffe00
e1fc00
e03800
ENDCHAR
STARTCHAR zabovedot
ENCODING 191
SWIDTH 466 0
DWIDTH 16 0
BBX 17 23 1 0
BITMAP
007000
00f800
00f800
00f800
007000
000000
07ff80
0fff00
0ffe00
181c00
103800
307000
00e000
01c000
038000
070100
0e0100
1c0300
3f8600
7ffe00
7ffe00
e1fc00
e03800
ENDCHAR
STARTCHAR Racute
ENCODING 192
SWIDTH 681 0
DWIDTH 23 0
BBX 22 33 2 0
BITMAP
000008
00003c
00007c
0000f8
0001f0
0003c0
000700
000400
000000
07ff80
01fff0
01f0f8
01f0f8
01f07c
03e07c
03e07c
03e07c
03e07c
03e0f8
07c1f0
07c3e0
07ff80
07ff80
07c3c0
0f83e0
0f83e0
0f83e0
0f83e0
0f83e0
1f03e0
1f03e0
1f01f0
ffc0fc
ENDCHAR
STARTCHAR Aacute
ENCODING 193
SWIDTH 634 0
DWIDTH 21 0
BBX 23 31 -1 0
BITMAP
00000c
00003c
00007e
0001f8
0003e0
000700
000000
0003e0
0003e0
0007e0
0007e0
000fe0
000fe0
001be0
001be0
0033e0
0031e0
0061f0
0061f0
00c1f0
00c1f0
01fff0
03fff0
0301f0
0701f0
0601f0
0e01f0
0c01f0
1c00f8
3c01f8
ff07fe
ENDCHAR
STARTCHAR Acircumflex
ENCODING 194
SWIDTH 634 0
DWIDTH 21 0
BBX 23 30 -1 0
BITMAP
000040
0001f0
0003f8
000ffc
003c0e
000000
0003e0
0003e0
0007e0
0007e0
000fe0
000fe0
001be0
001be0
0033e0
0031e0
0061f0
0061f0
00c1f0
00c1f0
01fff0
03fff0
0301f0
0701f0
0601f0
0e01f0
0c01f0
1c00f8
3c01f8
ff07fe
ENDCHAR
STARTCHAR Abreve
ENCODING 195
SWIDTH 634 0
DWIDTH 21 0
BBX 23 30 -1 0
BITMAP
000c06
000e0e
000ffc
0007f8
0003e0
000000
0003e0
0003e0
0007e0
0007e0
000fe0
000fe0
001be0
001be0
0033e0
0031e0
0061f0
0061f0
00c1f0
00c1f0
01fff0
03fff0
0301f0
0701f0
0601f0
0e01f0
0c01f0
1c00f8
3c01f8
ff07fe
ENDCHAR
STARTCHAR Adiaeresis
ENCODING 196
SWIDTH 634 0
DWIDTH 21 0
BBX 23 29 0 0
BITMAP
00381c
007c3e
007c3e
007c3e
00381c
0003c0
0003c0
0007c0
000fc0
000fc0
001fc0
0017e0
0037e0
0027e0
0067e0
0047e0
00c3e0
0083e0
0183e0
01ffe0
03ffe0
0201e0
0601f0
0e01f0
0c01f0
1c01f0
1801f0
3801f0
fe07fc
ENDCHAR
STARTCHAR Lacute
ENCODING 197
SWIDTH 586 0
DWIDTH 20 0
BBX 20 33 1 0
BITMAP
000020
0000f0
0001f0
0003e0
0007c0
000f00
001c00
001000
000000
07ff00
01f800
01f800
01f000
01f000
01f000
03f000
03e000
03e000
03e000
03e000
07e000
07c000
07c000
07c000
07c000
078000
0f8030
0f8060
0f8060
0f80e0
1f83e0
1fffc0
ffffc0
ENDCHAR
STARTCHAR Cacute
ENCODING 198
SWIDTH 672 0
DWIDTH 22 0
BBX 23 33 4 0
BITMAP
000004
00001e
00003e
00007c
0000f8
0001e0
000380
000200
000000
001fc0
00fff0
03f078
07c038
0f8038
1f8010
3f0010
3e0010
7e0000
7e0000
7c0000
7c0000
fc0000
fc0000
fc0000
fc0000
fc0020
7c0060
7c00c0
3e00c0
3e01c0
1f07c0
07ff80
007c00
ENDCHAR
STARTCHAR Ccedilla
ENCODING 199
SWIDTH 672 0
DWIDTH 22 0
BBX 21 32 4 -8
BITMAP
001fc0
00fff0
03f078
07c038
0f8038
1f8010
3f0010
3e0010
7e0000
7e0000
7c0000
7c0000
fc0000
fc0000
fc0000
fc0000
fc0020
7c0060
7c00c0
7e01c0
3e01c0
1f07c0
07ff80
00fc00
00c000
00c000
00f000
01f800
007800
007800
00f000
03c000
ENDCHAR
STARTCHAR Ccaron
ENCODING 200
SWIDTH 672 0
DWIDTH 22 0
BBX 22 33 4 0
BITMAP
002008
00701c
003830
001ce0
001fc0
000f80
000700
000200
000000
001fc0
00fff0
03f078
07c038
0f8038
1f8010
3f0010
3e0010
7e0000
7e0000
7c0000
7c0000
fc0000
fc0000
fc0000
fc0000
fc0020
7c0060
7c00c0
3e00c0
3e01c0
1f07c0
07ff80
007c00
ENDCHAR
STARTCHAR Eacute
ENCODING 201
SWIDTH 622 0
DWIDTH 21 0
BBX 23 31 1 0
BITMAP
000010
000078
0000fc
0003f8
0007c0
000e00
000000
07fffe
01fffe
01f81e
01f00c
01f00c
01f00c
01f00c
03f000
03e060
03e060
03e0c0
03ffc0
07ffc0
07c0c0
07c0c0
07c080
07c000
0f8018
0f8030
0f8030
0f8070
1f80e0
1fffe0
ffffe0
ENDCHAR
STARTCHAR Eogonek
ENCODING 202
SWIDTH 622 0
DWIDTH 21 0
BBX 23 33 1 -9
BITMAP
07fffe
01fffe
01f81e
01f00c
01f00c
01f00c
01f00c
03f000
03e060
03e060
03e0c0
03ffc0
07ffc0
07c0c0
07c0c0
07c080
07c000
0f8018
0f8030
0f8030
0f8070
1f80e0
1fffe0
ffffe0
000400
001800
003000
007000
006000
00e000
00e000
00fe00
007800
ENDCHAR
STARTCHAR Ediaeresis
ENCODING 203
SWIDTH 622 0
DWIDTH 21 0
BBX 23 29 1 0
BITMAP
007038
00f87c
00f87c
00f87c
007038
07fffe
01fffe
01f01e
01f00c
01f00c
01f00c
03e004
03e000
03e020
03e060
03e0e0
07ffc0
07ffc0
07c0c0
07c0c0
0fc0c0
0f8000
0f8018
0f8010
0f8030
1f8070
1f80f0
1fffe0
ffffe0
ENDCHAR
STARTCHAR Ecaron
ENCODING 204
SWIDTH 622 0
DWIDTH 21 0
BBX 23 33 1 0
BITMAP
002008
00701c
003830
001ce0
001fc0
000f80
000700
000200
000000
07fffe
01fffe
01f81e
01f00c
01f00c
01f00c
01f00c
03f000
03e060
03e060
03e0c0
03ffc0
07ffc0
07c0c0
07c0c0
07c080
07c000
0f8018
0f8030
0f8030
0f8070
1f80e0
1fffe0
ffffe0
ENDCHAR
STARTCHAR Iacute
ENCODING 205
SWIDTH 386 0
DWIDTH 13 0
BBX 16 31 2 0
BITMAP
0006
001f
003f
007e
01f0
0180
0000
07fe
01f0
01f0
01f0
03e0
03e0
03e0
03e0
03e0
07c0
07c0
07c0
07c0
07c0
0f80
0f80
0f80
0f80
0f80
0f00
1f00
1f00
1f00
ffc0
ENDCHAR
STARTCHAR Icircumflex
ENCODING 206
SWIDTH 386 0
DWIDTH 13 0
BBX 17 30 1 0
BITMAP
001000
007800
00fe00
03ff00
0f0380
000000
07ff00
01f800
01f000
01f000
01f000
01f000
03f000
03e000
03e000
03e000
03e000
07e000
07c000
07c000
07c000
07c000
0f8000
0f8000
0f8000
0f8000
0f8000
1f8000
1f8000
ffe000
ENDCHAR
STARTCHAR Dcaron
ENCODING 207
SWIDTH 774 0
DWIDTH 26 0
BBX 26 33 1 0
BITMAP
00200800
00701c00
00383000
001ce000
001fc000
000f8000
00070000
00020000
00000000
07ff8000
01fff800
01f03e00
01f00f00
01f00f80
03e00780
03e00780
03e007c0
03e007c0
03e007c0
07c007c0
07c007c0
07c00fc0
07c00f80
07c00f80
0f801f80
0f801f00
0f803f00
0f803e00
1f007e00
1f00fc00
1f83f000
1fffc000
fffc0000
ENDCHAR
STARTCHAR Dstroke
ENCODING 208
SWIDTH 780 0
DWIDTH 26 0
BBX 25 24 2 0
BITMAP
07ff8000
01fff000
01f03c00
01f01e00
01f01f00
03f00f00
03e00f00
03e00f80
03e00f80
03e00f80
07e00f80
3ffe0f80
3ffe0f80
07c01f00
07c01f00
0f801f00
0f803e00
0f803e00
0f807c00
0f80fc00
1f01f800
1f83e000
1fff8000
fffc0000
ENDCHAR
STARTCHAR Nacute
ENCODING 209
SWIDTH 741 0
DWIDTH 25 0
BBX 28 33 1 0
BITMAP
00000080
000003c0
000007c0
00000f80
00001f00
00003c00
00007000
00004000
00000000
07f80ff0
01f80380
01f80380
01fc0380
01fc0300
01fe0300
033e0300
033e0300
031f0600
031f0600
031f8600
060f8600
060f8600
0607cc00
0607cc00
0607ec00
0c03ec00
0c03ec00
0c01f800
0c01f800
1c01f800
1c00f800
1c00f800
ff007000
ENDCHAR
STARTCHAR Ncaron
ENCODING 210
SWIDTH 741 0
DWIDTH 25 0
BBX 28 33 1 0
BITMAP
00040100
000e0380
00070600
00039c00
0003f800
0001f000
0000e000
00004000
00000000
07f80ff0
01f80380
01f80380
01fc0380
01fc0300
01fe0300
033e0300
033e0300
031f0600
031f0600
031f8600
060f8600
060f8600
0607cc00
0607cc00
0607ec00
0c03ec00
0c03ec00
0c01f800
0c01f800
1c01f800
1c00f800
1c00f800
ff007000
ENDCHAR
STARTCHAR Oacute
ENCODING 211
SWIDTH 761 0
DWIDTH 25 0
BBX 23 30 4 0
BITMAP
0000e0
0001f0
0007e0
000f80
003e00
001000
001e00
00ffc0
03e0f0
07c0f8
0fc078
1f807c
3f007c
3f007c
7e007e
7e007e
7e007e
fe007e
fc00fe
fc00fc
fc00fc
fc00fc
fc01f8
7c01f8
7c03f0
3c03e0
3e07c0
1f0f80
07ff00
00f800
ENDCHAR
STARTCHAR Ocircumflex
ENCODING 212
SWIDTH 761 0
DWIDTH 25 0
BBX 23 30 4 0
BITMAP
000200
000780
001fc0
003fe0
0070f0
008010
001e00
00ffc0
03e0f0
07c0f8
0fc078
1f807c
3f007c
3f007c
7e007e
7e007e
7e007e
fe007e
fc00fe
fc00fc
fc00fc
fc00fc
fc01f8
7c01f8
7c03f0
3c03e0
3e07c0
1f0f80
07ff00
00f800
ENDCHAR
STARTCHAR Odoubleacute
ENCODING 213
SWIDTH 761 0
DWIDTH 25 0
BBX 23 32 4 0
BITMAP
000630
000e38
000e70
001c70
0018e0
0030c0
002080
000000
001e00
00ffc0
03e0f0
07c0f8
0fc078
1f807c
3f007c
3f007c
7e007e
7e007e
7e007e
fe007e
fc00fe
fc00fc
fc00fc
fc00fc
fc01f8
7c01f8
7c03f0
3c03e0
3e07c0
1f0f80
07ff00
00f800
ENDCHAR
STARTCHAR Odiaeresis
ENCODING 214
SWIDTH 761 0
DWIDTH 25 0
BBX 23 29 4 0
BITMAP
00e070
01f0f8
01f0f8
01f0f8
00e070
001e00
00ffc0
03e0f0
07c0f8
0fc078
1f807c
3f007c
3f007c
7e007e
7e007e
7e007e
fe007e
fc00fe
fc00fc
fc00fc
fc00fc
fc01f8
7c01f8
7c03f0
3c03e0
3e07c0
1f0f80
07ff00
00f800
ENDCHAR
STARTCHAR multiply
ENCODING 215
SWIDTH 600 0
DWIDTH 20 0
BBX 15 15 5 1
BITMAP
4008
600c
f01e
783c
3c78
1ef0
0fe0
07c0
07c0
0ee0
1c70
3838
f01e
600c
4008
ENDCHAR
STARTCHAR Rcaron
ENCODING 216
SWIDTH 681 0
DWIDTH 23 0
BBX 22 33 2 0
BITMAP
004010
00e038
007060
0039c0
003f80
001f00
000e00
000400
000000
07ff80
01fff0
01f0f8
01f0f8
01f07c
03e07c
03e07c
03e07c
03e07c
03e0f8
07c1f0
07c3e0
07ff80
07ff80
07c3c0
0f83e0
0f83e0
0f83e0
0f83e0
0f83e0
1f03e0
1f03e0
1f01f0
ffc0fc
ENDCHAR
STARTCHAR Uring
ENCODING 217
SWIDTH 776 0
DWIDTH 26 0
BBX 25 32 5 0
BITMAP
000f0000
00188000
0010c000
0030c000
0030c000
00118000
000e0000
00000000
7fe3ff80
1f007c00
1f007c00
1f00fc00
1f00f800
3e00f800
3e00f800
3e00f800
3e01f000
3e01f000
7c01f000
7c01f000
7c03f000
7c03e000
f803e000
f803e000
f807c000
f807c000
f807c000
f80f8000
780f0000
7c1f0000
1ffc0000
03e00000
ENDCHAR
STARTCHAR Uacute
ENCODING 218
SWIDTH 776 0
DWIDTH 26 0
BBX 25 31 5 0
BITMAP
00001800
00007c00
0000fc00
0003f800
0007c000
000e0000
00000000
7fe3ff80
1f007c00
1f007c00
1f00fc00
1f00f800
3e00f800
3e00f800
3e00f800
3e01f000
3e01f000
7c01f000
7c01f000
7c03f000
7c03e000
f803e000
f803e000
f807c000
f807c000
f807c000
f80f8000
780f0000
7c1f0000
1ffc0000
03e00000
ENDCHAR
STARTCHAR Udoubleacute
ENCODING 219
SWIDTH 776 0
DWIDTH 26 0
BBX 25 32 5 0
BITMAP
00063000
000e3800
000e7000
001c7000
0018e000
0030c000
00208000
00000000
7fe3ff80
1f007c00
1f007c00
1f00fc00
1f00f800
3e00f800
3e00f800
3e00f800
3e01f000
3e01f000
7c01f000
7c01f000
7c03f000
7c03e000
f803e000
f803e000
f807c000
f807c000
f807c000
f80f8000
780f0000
7c1f0000
1ffc0000
03e00000
ENDCHAR
STARTCHAR Udiaeresis
ENCODING 220
SWIDTH 776 0
DWIDTH 26 0
BBX 25 29 5 0
BITMAP
00e0e000
01f1f000
01f1f000
01f1f000
00e0e000
7ff1ff80
1f807c00
1f807c00
1f007c00
1f00f800
3f00f800
3f00f800
3e00f800
3e00f000
3e01f000
7e01f000
7c01f000
7c01f000
7c01e000
fc03e000
f803e000
f803c000
f807c000
f807c000
f8078000
7c0f8000
7e1f0000
1ffc0000
03f00000
ENDCHAR
STARTCHAR Yacute
ENCODING 221
SWIDTH 622 0
DWIDTH 21 0
BBX 21 31 5 0
BITMAP
000030
0000f0
0001f8
0007e0
000f80
001800
000000
ffcff8
3e01e0
3e01c0
3e0380
1f0700
1f0600
1f0e00
1f0c00
0f1800
0f3800
0fb000
0fe000
07e000
07c000
07c000
078000
078000
078000
0f8000
0f8000
0f0000
0f0000
1f0000
ffe000
ENDCHAR
STARTCHAR Tcedilla
ENCODING 222
SWIDTH 616 0
DWIDTH 21 0
BBX 21 32 4 -8
BITMAP
3ffff8
7ffff8
78fc78
70f838
60f830
40f830
c0f810
01f800
01f000
01f000
01f000
01f000
03e000
03e000
03e000
03e000
07e000
07c000
07c000
07c000
07c000
0fc000
0fc000
7ff000
001800
003000
007800
007c00
001c00
001c00
003800
00f000
ENDCHAR
STARTCHAR ssharp
ENCODING 223
SWIDTH 628 0
DWIDTH 21 0
BBX 27 33 -3 -8
BITMAP
00003e00
0001ff80
0007c3c0
000f81e0
001f01e0
001f01e0
003f03e0
003e03c0
01fe0f80
03fe3c00
007c7800
007c7800
007cf800
007cf800
0078fc00
00f87e00
00f87e00
00f83f00
00f01f00
00f01f00
01f00f00
01f38e00
01e78e00
01e3fc00
01e0f000
03e00000
03c00000
03c00000
43c00000
e3800000
f7000000
7e000000
18000000
ENDCHAR
STARTCHAR racute
ENCODING 224
SWIDTH 440 0
DWIDTH 15 0
BBX 17 26 3 0
BITMAP
000100
000780
000f80
001f00
003e00
007800
00e000
008000
000000
0f0c00
7f3e00
1e7e00
1efc00
1f9800
1f0000
3f0000
3e0000
3e0000
3e0000
7c0000
7c0000
7c0000
7c0000
f80000
f80000
f00000
ENDCHAR
STARTCHAR aacute
ENCODING 225
SWIDTH 596 0
DWIDTH 20 0
BBX 19 25 2 0
BITMAP
0000c0
0003c0
0007c0
000f80
001e00
003800
007000
000000
0073c0
03ffc0
07c7c0
0f87c0
1f0780
3e0f80
3e0f80
3c1f00
7c1f00
7c3f00
f83f00
f85e20
f89e60
f9bec0
ff3f80
7e3f00
301c00
ENDCHAR
STARTCHAR acircumflex
ENCODING 226
SWIDTH 596 0
DWIDTH 20 0
BBX 19 25 2 0
BITMAP
000800
001c00
003e00
007f00
00e780
018380
0700c0
020080
0073c0
03ffc0
07c7c0
0f87c0
1f0780
3e0f80
3e0f80
3c1f00
7c1f00
7c3f00
f83f00
f85e20
f89e60
f9bec0
ff3f80
7e3f00
301c00
ENDCHAR
STARTCHAR abreve
ENCODING 227
SWIDTH 596 0
DWIDTH 20 0
BBX 19 23 2 0
BITMAP
0180c0
01c1c0
01ff80
00ff00
007c00
000000
0073c0
03ffc0
07c7c0
0f87c0
1f0780
3e0f80
3e0f80
3c1f00
7c1f00
7c3f00
f83f00
f85e20
f89e60
f9bec0
ff3f80
7e3f00
301c00
ENDCHAR
STARTCHAR adiaeresis
ENCODING 228
SWIDTH 596 0
DWIDTH 20 0
BBX 19 24 2 0
BITMAP
01c1c0
03e3e0
03e3e0
03e3e0
01c1c0
000000
000000
0073c0
03ffc0
07c7c0
0f87c0
1f0780
3e0f80
3e0f80
3c1f00
7c1f00
7c3f00
f83f00
f85e20
f89e60
f9bec0
ff3f80
7e3f00
301c00
ENDCHAR
STARTCHAR lacute
ENCODING 229
SWIDTH 327 0
DWIDTH 11 0
BBX 15 34 3 0
BITMAP
0004
001e
003e
007c
00f8
01e0
0380
0200
0000
01c0
3fc0
0f80
0780
0f80
0f80
0f00
0f00
1f00
1f00
1f00
1e00
3e00
3e00
3e00
3c00
7c00
7c00
7c00
7880
f980
fb00
fe00
fc00
7000
ENDCHAR
STARTCHAR cacute
ENCODING 230
SWIDTH 456 0
DWIDTH 15 0
BBX 19 26 2 0
BITMAP
000040
0001e0
0003e0
0007c0
000f80
001e00
003800
002000
000000
003000
03fe00
079f00
1f0f00
3e0e00
3c0400
7c0000
7c0000
780000
f80000
f80000
f80400
f80c00
f81800
7c3000
7fe000
1e0000
ENDCHAR
STARTCHAR ccedilla
ENCODING 231
SWIDTH 456 0
DWIDTH 15 0
BBX 16 25 2 -8
BITMAP
0030
03fe
079f
1f0f
3e0e
3c04
7c00
7c00
7800
f800
f800
f804
f80c
f818
7c30
7fe0
1f80
0600
0e00
0f00
0f80
0380
0380
0700
1e00
ENDCHAR
STARTCHAR ccaron
ENCODING 232
SWIDTH 456 0
DWIDTH 15 0
BBX 18 26 2 0
BITMAP
020080
0701c0
038300
01ce00
01fc00
00f800
007000
002000
000000
003000
03fe00
079f00
1f0f00
3e0e00
3c0400
7c0000
7c0000
780000
f80000
f80000
f80400
f80c00
f81800
7c3000
7fe000
1e0000
ENDCHAR
STARTCHAR eacute
ENCODING 233
SWIDTH 476 0
DWIDTH 16 0
BBX 17 25 2 0
BITMAP
000100
000380
000f80
001f00
003e00
007800
00e000
008000
003000
03fe00
078f00
1f0f00
3e0f00
3c1f00
7c1e00
7c7c00
79f800
ffc000
fc0000
f80600
f80c00
f80800
7c3800
3fe000
1f0000
ENDCHAR
STARTCHAR eogonek
ENCODING 234
SWIDTH 476 0
DWIDTH 16 0
BBX 16 26 2 -9
BITMAP
0030
03fe
078f
1f0f
3e0f
3c1f
7c1e
7c7c
79f8
ffc0
fc00
f806
f80c
f808
7c38
3fe0
1f00
0040
0180
0300
0700
0600
0e00
0e00
0fe0
0780
ENDCHAR
STARTCHAR ediaeresis
ENCODING 235
SWIDTH 476 0
DWIDTH 16 0
BBX 17 24 2 0
BITMAP
070700
0f8f80
0f8f80
0f8f80
070700
000000
000000
003000
03fe00
078f00
1f0f00
3e0f00
3c1f00
7c1e00
7c7c00
79f800
ffc000
fc0000
f80600
f80c00
f80800
7c3800
3fe000
1f0000
ENDCHAR
STARTCHAR ecaron
ENCODING 236
SWIDTH 476 0
DWIDTH 16 0
BBX 18 26 2 0
BITMAP
020080
0701c0
038300
01ce00
01fc00
00f800
007000
002000
000000
003000
03fe00
078f00
1f0f00
3e0f00
3c1f00
7c1e00
7c7c00
79f800
ffc000
fc0000
f80600
f80c00
f80800
7c3800
3fe000
1f0000
ENDCHAR
STARTCHAR iacute
ENCODING 237
SWIDTH 339 0
DWIDTH 11 0
BBX 11 25 3 0
BITMAP
0040
00e0
01e0
03c0
0780
0e00
3800
1000
0780
7f00
bf00
1f00
1e00
3e00
3e00
3e00
3c00
7c00
7c00
7880
f980
fb00
fe00
fc00
7000
ENDCHAR
STARTCHAR icircumflex
ENCODING 238
SWIDTH 339 0
DWIDTH 11 0
BBX 13 25 2 0
BITMAP
0100
0380
07c0
1fe0
3ce0
7070
c018
0000
03c0
3f80
5f80
0f80
0f00
1f00
1f00
1f00
1e00
3e00
3e00
3c40
7cc0
7d80
7f00
7e00
3800
ENDCHAR
STARTCHAR dcaron
ENCODING 239
SWIDTH 840 0
DWIDTH 28 0
BBX 29 28 2 0
BITMAP
00000060
000000f0
000000f8
000038f8
0007f8f0
0001f070
0001f0e0
0001f0e0
0001f1c0
0001e100
0001e200
007be000
03ffe000
07c3c000
0f87c000
1f07c000
3e07c000
3e0f8000
7c0f8000
7c1f8000
781f8000
f83f8000
f82f1000
f84f3000
f89f6000
7f9fc000
7e1f8000
38060000
ENDCHAR
STARTCHAR dstroke
ENCODING 240
SWIDTH 690 0
DWIDTH 23 0
BBX 24 25 2 0
BITMAP
000038
0007f8
0001f0
0001f0
001fff
001fff
0001e0
0001e0
007be0
03ffe0
07c3c0
0f87c0
1f07c0
3e07c0
3e0f80
7c0f80
7c1f80
781f80
f83f80
f82f10
f84f30
f89f60
7f9fc0
7e1f80
380600
ENDCHAR
STARTCHAR nacute
ENCODING 241
SWIDTH 635 0
DWIDTH 21 0
BBX 20 26 2 0
BITMAP
000040
0001e0
0003e0
0007c0
000f80
001e00
003800
002000
000000
07c1c0
7f87e0
0f9fe0
0f93e0
0f23e0
1f43c0
1f87c0
1e87c0
1f0780
3f0f80
3e0f80
3e0f10
3e1f30
7c1f60
7c1fc0
7c1f80
f80e00
ENDCHAR
STARTCHAR ncaron
ENCODING 242
SWIDTH 635 0
DWIDTH 21 0
BBX 20 26 2 0
BITMAP
020080
0701c0
038300
01ce00
01fc00
00f800
007000
002000
000000
07c1c0
7f87e0
0f9fe0
0f93e0
0f23e0
1f43c0
1f87c0
1e87c0
1f0780
3f0f80
3e0f80
3e0f10
3e1f30
7c1f60
7c1fc0
7c1f80
f80e00
ENDCHAR
STARTCHAR oacute
ENCODING 243
SWIDTH 562 0
DWIDTH 19 0
BBX 18 25 2 0
BITMAP
000080
0003c0
0007c0
000f80
001e00
003c00
00f000
004000
00f800
07ff00
0fcf80
1f0780
3f07c0
3e07c0
7c07c0
7c0fc0
fc0fc0
f80f80
f80f80
f81f00
f83f00
783e00
787c00
3ff800
07c000
ENDCHAR
STARTCHAR ocircumflex
ENCODING 244
SWIDTH 562 0
DWIDTH 19 0
BBX 18 25 2 0
BITMAP
001800
003c00
007c00
00fe00
03c700
070300
0e0180
080080
00f800
07ff00
0fcf80
1f0780
3f07c0
3e07c0
7c07c0
7c0fc0
fc0fc0
f80f80
f80f80
f81f00
f83f00
783e00
787c00
3ff800
07c000
ENDCHAR
STARTCHAR odoubleacute
ENCODING 245
SWIDTH 562 0
DWIDTH 19 0
BBX 18 25 2 0
BITMAP
003180
0071c0
007380
00e380
00c700
018600
010400
000000
00f800
07ff00
0fcf80
1f0780
3f07c0
3e07c0
7c07c0
7c0fc0
fc0fc0
f80f80
f80f80
f81f00
f83f00
783e00
787c00
3ff800
07c000
ENDCHAR
STARTCHAR odiaeresis
ENCODING 246
SWIDTH 562 0
DWIDTH 19 0
BBX 19 24 2 0
BITMAP
01c1c0
03e3e0
03e3e0
03e3e0
01c1c0
000000
000000
00f800
07ff00
0fcf80
1f0780
3f07c0
3e07c0
7c07c0
7c0fc0
fc0fc0
f80f80
f80f80
f81f00
f83f00
783e00
787c00
3ff800
07c000
ENDCHAR
STARTCHAR division
ENCODING 247
SWIDTH 600 0
DWIDTH 20 0
BBX 17 17 3 0
BITMAP
008000
01c000
03e000
01c000
008000
000000
000000
ffff80
ffff80
ffff80
000000
000000
008000
01c000
03e000
01c000
008000
ENDCHAR
STARTCHAR rcaron
ENCODING 248
SWIDTH 440 0
DWIDTH 15 0
BBX 16 26 3 0
BITMAP
0802
1c07
0e0c
0738
07f0
03e0
01c0
0080
0000
0f0c
7f3e
1e7e
1efc
1f98
1f00
3f00
3e00
3e00
3e00
7c00
7c00
7c00
7c00
f800
f800
f000
ENDCHAR
STARTCHAR uring
ENCODING 249
SWIDTH 634 0
DWIDTH 21 0
BBX 19 25 3 0
BITMAP
00f000
018800
010c00
030c00
030c00
011800
00e000
000000
0703c0
ff07c0
3f07c0
1e0780
3e0f80
3e0f80
3e0f80
3c1f00
7c1f00
7c3f00
7c7f00
785e20
f89e60
f93ec0
ff3f80
fc3f00
700c00
ENDCHAR
STARTCHAR uacute
ENCODING 250
SWIDTH 634 0
DWIDTH 21 0
BBX 19 25 3 0
BITMAP
000080
0001c0
0003e0
0007c0
000f00
001c00
007000
002000
0703c0
ff07c0
3f07c0
1e0780
3e0f80
3e0f80
3e0f80
3c1f00
7c1f00
7c3f00
7c7f00
785e20
f89e60
f93ec0
ff3f80
fc3f00
700c00
ENDCHAR
STARTCHAR udoubleacute
ENCODING 251
SWIDTH 634 0
DWIDTH 21 0
BBX 19 25 3 0
BITMAP
006300
00e380
00e700
01c700
018e00
030c00
020800
000000
0703c0
ff07c0
3f07c0
1e0780
3e0f80
3e0f80
3e0f80
3c1f00
7c1f00
7c3f00
7c7f00
785e20
f89e60
f93ec0
ff3f80
fc3f00
700c00
ENDCHAR
STARTCHAR udiaeresis
ENCODING 252
SWIDTH 634 0
DWIDTH 21 0
BBX 19 24 3 0
BITMAP
038380
07c7c0
07c7c0
07c7c0
038380
000000
000000
0703c0
ff07c0
3f07c0
1e0780
3e0f80
3e0f80
3e0f80
3c1f00
7c1f00
7c3f00
7c7f00
785e20
f89e60
f93ec0
ff3f80
fc3f00
700c00
ENDCHAR
STARTCHAR yacute
ENCODING 253
SWIDTH 489 0
DWIDTH 16 0
BBX 19 33 0 -8
BITMAP
000040
0001e0
0003e0
0007c0
000f00
001e00
003800
002000
00c040
0fc1e0
3fc1e0
07c1c0
07c1c0
03c1c0
03c380
03c380
03c300
03e300
03e600
03e400
03ec00
01e800
01f800
01f000
01f000
01e000
01e000
01c000
618000
f10000
fb0000
fe0000
780000
ENDCHAR
STARTCHAR tcedilla
ENCODING 254
SWIDTH 359 0
DWIDTH 12 0
BBX 12 30 3 -8
BITMAP
00c0
0380
0f80
0f80
0f00
7ff0
fff0
1f00
1e00
3e00
3e00
3e00
3c00
7c00
7c00
7c00
78c0
f880
f900
fe00
fc00
3800
0300
0600
0f00
0f80
0380
0380
0700
1e00
ENDCHAR
STARTCHAR abovedot
ENCODING 255
SWIDTH 402 0
DWIDTH 13 0
BBX 5 5 9 19
BITMAP
70
f8
f8
f8
70
ENDCHAR
ENDFONT
